<svg id="katman_1" data-name="katman 1" xmlns="http://www.w3.org/2000/svg" viewBox="0 0 165.68 161.35"><defs><style>.cls-1{fill:#43091f;}.cls-2{fill:#e84564;}</style></defs><rect class="cls-1" width="165.68" height="161.35" rx="31.71"/><path class="cls-2" d="M79.85,115.49H68.41a.72.72,0,0,1-.82-.82V85.52H38.54v29a.82.82,0,0,1-.92.93H26.49c-.68,0-1-.31-1-.93V47.72c0-.55.31-.83.93-.83H37.62c.61,0,.92.28.92.83V75.63H67.59v-28c0-.48.27-.72.82-.72H80a.64.64,0,0,1,.72.72v67.06A.72.72,0,0,1,79.85,115.49Z" transform="translate(0 0)"/><path class="cls-2" d="M137,115.49H93.65c-.55,0-.83-.31-.83-.93v-5.87a1.55,1.55,0,0,1,.52-1.13,207,207,0,0,0,18.13-17.3q11.32-11.64,11.33-21.84.09-5.67-3.09-9t-9.17-3.3A24.87,24.87,0,0,0,95.91,60.8c-.68.48-1,.31-1-.52V51.63a1.07,1.07,0,0,1,.62-1,35.25,35.25,0,0,1,18.44-4.74q10.5,0,16.17,6A21.16,21.16,0,0,1,135.77,67q0,12.57-11.74,25.34-6.39,7-13.28,13.28,7.41-.3,17.2-.31h11.53c.55,0,.79.28.72.83L138,114.67A1.07,1.07,0,0,1,137,115.49Z" transform="translate(0 0)"/></svg>