<svg id="katman_1" data-name="katman 1" xmlns="http://www.w3.org/2000/svg" viewBox="0 0 165.68 161.35"><defs><style>.cls-1{fill:#e02521;}.cls-2{fill:#fff;}</style></defs><rect class="cls-1" width="165.68" height="161.35" rx="31.71"/><path class="cls-2" d="M87.87,116.31H76a.76.76,0,0,1-.85-.86V85.17H45v30.18a.85.85,0,0,1-1,1H32.44c-.71,0-1.07-.32-1.07-1V45.9c0-.57.32-.85,1-.85H44c.64,0,1,.28,1,.85v29H75.14V45.8c0-.5.28-.75.85-.75H88a.66.66,0,0,1,.74.75v69.65A.76.76,0,0,1,87.87,116.31Z" transform="translate(0 0)"/><path class="cls-2" d="M103.49,64.2h10.59a1.2,1.2,0,0,1,1.18,1,27.89,27.89,0,0,1,1.18,6.32q6.3-8.25,17.12-8.24a.67.67,0,0,1,.75.75V75a.76.76,0,0,1-.86.85q-9.73-.64-15.52,5.14a3.48,3.48,0,0,0-1,2.57v31.88a.76.76,0,0,1-.85.86H104.35c-.65,0-1-.29-1-.86V79.39q0-8.34-.53-14.44C102.78,64.45,103,64.2,103.49,64.2Z" transform="translate(0 0)"/></svg>