<svg id="katman_1" data-name="katman 1" xmlns="http://www.w3.org/2000/svg" viewBox="0 0 165.68 161.35"><defs><style>.cls-1{fill:#350000;}.cls-2{fill:#f90;}</style></defs><rect class="cls-1" width="165.68" height="161.35" rx="31.71"/><path class="cls-2" d="M44.8,115.88H33.14a.76.76,0,0,1-.86-.86V45.58q0-1,.75-1,5.78-.21,21.83-.22,12.84,0,20,5.25t7.12,15.19q0,13.8-14.45,18.94,3,3.52,11,14.82t11.18,16.1c.5.79.43,1.18-.21,1.18H75.19a1.67,1.67,0,0,1-1.5-.64q-1.71-2.35-8.51-12.9t-8.5-13.21a3.76,3.76,0,0,0-3.43-2H45.66V115A.76.76,0,0,1,44.8,115.88ZM45.66,77h8.77q7,0,10.43-3.05t3.48-8.51a10.07,10.07,0,0,0-3.53-8.24q-3.53-2.88-10.38-2.88c-5,0-7.92.07-8.77.21Z" transform="translate(0 0)"/><path class="cls-2" d="M129.33,76.08a23.28,23.28,0,0,0-12.52-3.75c-2.5,0-4.33.47-5.51,1.39A4.13,4.13,0,0,0,109.53,77a4.54,4.54,0,0,0,1.5,3.37c1,1,3.11,2.09,6.32,3.37q8.88,3.42,12.46,7.22a13.71,13.71,0,0,1,3.59,9.79,14.29,14.29,0,0,1-5.52,11.72Q122.38,117,113,117t-15.41-3.42a1,1,0,0,1-.64-1.07v-9.95a.62.62,0,0,1,.27-.59.36.36,0,0,1,.48,0,24.59,24.59,0,0,0,14.87,5.14,10.2,10.2,0,0,0,5.72-1.34,4,4,0,0,0,2-3.48,5.08,5.08,0,0,0-1.6-3.8c-1.07-1-3.18-2.15-6.31-3.37q-8.56-3.32-11.93-7.11A13.89,13.89,0,0,1,97,78.43a14.34,14.34,0,0,1,5-11.13q5-4.48,14.34-4.49,8.67,0,13.38,2.35a1.53,1.53,0,0,1,.53,1.39v8.88C130.29,76.29,130,76.5,129.33,76.08Z" transform="translate(0 0)"/></svg>