<svg id="katman_1" data-name="katman 1" xmlns="http://www.w3.org/2000/svg" viewBox="0 0 165.68 161.35"><defs><style>.cls-1{fill:#01005a;}.cls-2{fill:#9a9afc;}</style></defs><rect class="cls-1" width="165.68" height="161.35" rx="31.71"/><path class="cls-2" d="M67.09,115H55.66a.73.73,0,0,1-.82-.83V85H25.79v29.05a.82.82,0,0,1-.93.93H13.74c-.69,0-1-.31-1-.93V47.2c0-.55.31-.82.93-.82H24.86c.62,0,.93.27.93.82V75.12H54.84v-28c0-.48.27-.72.82-.72H67.2a.64.64,0,0,1,.72.72v67.05A.74.74,0,0,1,67.09,115Z"/><path class="cls-2" d="M136.62,115H125.08a1.15,1.15,0,0,1-1.13-.93Q116.42,84,115.19,78.21h-.1q-.42,2.37-1.75,7t-4,13.75q-2.62,9.12-4.37,15.09a.93.93,0,0,1-1,.93H92.53a1.29,1.29,0,0,1-1.34-.93L77.39,65.74c-.14-.62.1-.92.72-.92H89.75a1,1,0,0,1,.93.72q7,27,8.86,36.87h.2q3.51-13.48,9.68-36.67c.21-.62.52-.92.93-.92h11.13q.61,0,.72.72,7.81,30.79,9.06,37.18h.21q3.5-16.48,9.37-37.18a.75.75,0,0,1,.82-.72h10.61c.62,0,.83.27.62.82l-15.14,48.41C137.47,114.67,137.1,115,136.62,115Z"/></svg>