<svg id="katman_1" data-name="katman 1" xmlns="http://www.w3.org/2000/svg" viewBox="0 0 100 100"><defs><style>.cls-1{fill:#e02521;}.cls-2{fill:#fff;}</style></defs><rect class="cls-1" x="2.64" y="3.88" width="94.71" height="92.24" rx="31.71"/><path class="cls-2" d="M52.88,70.37H46.09a.43.43,0,0,1-.49-.49V52.57H28.35V69.82a.49.49,0,0,1-.55.55H21.19c-.41,0-.61-.18-.61-.55V30.12c0-.33.18-.49.55-.49H27.8c.36,0,.55.16.55.49V46.7H45.6V30.06c0-.29.16-.43.49-.43h6.85a.37.37,0,0,1,.42.43V69.88A.43.43,0,0,1,52.88,70.37Z"/><path class="cls-2" d="M61.81,40.58h6a.67.67,0,0,1,.67.55,16,16,0,0,1,.68,3.61A11.65,11.65,0,0,1,79,40a.38.38,0,0,1,.43.43v6.3a.43.43,0,0,1-.49.49q-5.57-.37-8.87,2.93a2,2,0,0,0-.55,1.47V69.88a.43.43,0,0,1-.49.49H62.29c-.36,0-.55-.16-.55-.49V49.27c0-3.18-.1-5.94-.3-8.26C61.4,40.72,61.52,40.58,61.81,40.58Z"/></svg>